<svg xmlns="http://www.w3.org/2000/svg" version="1.1" xmlns:xlink="http://www.w3.org/1999/xlink" xmlns:svgjs="http://svgjs.dev/svgjs" width="1500" height="1500" viewBox="0 0 1500 1500"><rect width="1500" height="1500" fill="#0a1627"></rect><g transform="matrix(0.6666666666666666,0,0,0.6666666666666666,249.85778443113782,249.85778443113765)"><svg viewBox="0 0 334 334" data-background-color="#0a1627" preserveAspectRatio="xMidYMid meet" height="1500" width="1500" xmlns="http://www.w3.org/2000/svg" xmlns:xlink="http://www.w3.org/1999/xlink"><g id="tight-bounds" transform="matrix(1,0,0,1,0.04749999999998522,0.04750000000001364)"><svg viewBox="0 0 333.90454557049503 333.90454557049503" height="333.90454557049503" width="333.90454557049503"><g><svg></svg></g><g><svg viewBox="0 0 333.90454557049503 333.90454557049503" height="333.90454557049503" width="333.90454557049503"><g><path d="M0 166.952c0-92.205 74.747-166.952 166.952-166.952 92.205 0 166.952 74.747 166.953 166.952 0 92.205-74.747 166.952-166.953 166.953-92.205 0-166.952-74.747-166.952-166.953zM166.952 324.59c87.061 0 157.638-70.577 157.638-157.638 0-87.061-70.577-157.638-157.638-157.637-87.061 0-157.638 70.577-157.637 157.637 0 87.061 70.577 157.638 157.637 157.638z" data-fill-palette-color="tertiary" fill="#fe0039" stroke="transparent"></path><ellipse rx="160.27418187383762" ry="160.27418187383762" cx="166.95227278524752" cy="166.95227278524752" fill="#fe0039" stroke="transparent" stroke-width="0" fill-opacity="1" data-fill-palette-color="tertiary"></ellipse></g><g transform="matrix(1,0,0,1,132.18707322776223,71.17305217166896)"><svg viewBox="0 0 69.53039911497056 191.55844122715712" height="191.55844122715712" width="69.53039911497056"><g><svg viewBox="0 0 69.53039911497056 191.55844122715712" height="191.55844122715712" width="69.53039911497056"><g><svg viewBox="0 0 128.95275275317738 355.26889855046255" height="191.55844122715712" width="69.53039911497056"><g transform="matrix(1,0,0,1,0,163.71045732330543)"><svg viewBox="0 0 128.95275275317738 191.55844122715712" height="191.55844122715712" width="128.95275275317738"><g id="textblocktransform"><svg viewBox="0 0 128.95275275317738 191.55844122715712" height="191.55844122715712" width="128.95275275317738" id="textblock"><g><svg viewBox="0 0 128.95275275317738 191.55844122715712" height="191.55844122715712" width="128.95275275317738"><g transform="matrix(1,0,0,1,0,0)"><svg width="128.95275275317738" viewBox="-0.05 -37.5 25.85 38.4" height="191.55844122715712" data-palette-color="#0a1627"><path d="M25.8-31.5L25.8-31.5Q25.8-29.3 24.7-27.88 23.6-26.45 21.7-26.45L21.7-26.45Q20.3-26.45 19.4-27.5L19.4-27.5Q20.4-28.1 21.03-29.33 21.65-30.55 21.65-31.8L21.65-31.8Q21.65-33.1 20.85-34.1 20.05-35.1 17.95-35.1L17.95-35.1Q15.85-35.1 14.6-33.98 13.35-32.85 13.35-30.6L13.35-30.6Q13.35-28.75 14.18-27.38 15-26 16.25-24.78 17.5-23.55 18.98-22.33 20.45-21.1 21.7-19.58 22.95-18.05 23.78-16.1 24.6-14.15 24.6-11.45L24.6-11.45Q24.6-8.3 23.43-5.98 22.25-3.65 20.3-2.13 18.35-0.6 15.8 0.15 13.25 0.9 10.55 0.9L10.55 0.9Q8.4 0.9 6.48 0.45 4.55 0 3.1-1.03 1.65-2.05 0.8-3.65-0.05-5.25-0.05-7.55L-0.05-7.55Q-0.05-9.55 0.6-11.1 1.25-12.65 2.3-13.68 3.35-14.7 4.67-15.23 6-15.75 7.3-15.75L7.3-15.75Q7.95-15.75 8.68-15.6 9.4-15.45 10.03-15.08 10.65-14.7 11.1-14.05 11.55-13.4 11.7-12.45L11.7-12.45Q10.65-12.45 9.6-12.18 8.55-11.9 7.7-11.33 6.85-10.75 6.3-9.83 5.75-8.9 5.75-7.6L5.75-7.6Q5.75-5.7 7.03-4.4 8.3-3.1 10.7-3.1L10.7-3.1Q13.25-3.1 14.85-4.78 16.45-6.45 16.45-9.6L16.45-9.6Q16.45-11.75 15.7-13.48 14.95-15.2 13.8-16.68 12.65-18.15 11.33-19.53 10-20.9 8.85-22.28 7.7-23.65 6.95-25.18 6.2-26.7 6.2-28.55L6.2-28.55Q6.2-30.5 7.1-32.15 8-33.8 9.55-34.98 11.1-36.15 13.23-36.83 15.35-37.5 17.75-37.5L17.75-37.5Q18.65-37.5 20-37.33 21.35-37.15 22.65-36.55 23.95-35.95 24.88-34.75 25.8-33.55 25.8-31.5Z" opacity="1" transform="matrix(1,0,0,1,0,0)" fill="#0a1627" class="wordmark-text-0" data-fill-palette-color="quaternary" id="text-0"></path></svg></g></svg></g></svg></g></svg></g><g transform="matrix(1,0,0,1,24.629975775856877,0)"><svg viewBox="0 0 79.69280120146362 118.48810675216309" height="118.48810675216309" width="79.69280120146362"><g><svg xmlns="http://www.w3.org/2000/svg" xmlns:xlink="http://www.w3.org/1999/xlink" version="1.1" x="0" y="0" viewBox="28.866000000000003 18.576999999999998 42.269000000000005 62.84599999999999" enable-background="new 0 0 100 100" xml:space="preserve" height="118.48810675216309" width="79.69280120146362" class="icon-icon-0" data-fill-palette-color="quaternary" id="icon-0"><path d="M65.076 38.006c-1.215 0-2.344 0.362-3.292 0.979-1.057-1.78-2.993-2.979-5.208-2.979-1.214 0-2.342 0.362-3.291 0.979-1.057-1.779-2.993-2.979-5.208-2.979-0.869 0-1.694 0.188-2.442 0.519v-9.889c0-3.341-2.717-6.059-6.057-6.059-3.341 0-6.059 2.718-6.059 6.059v34.428c0 0.906 0.087 1.791 0.212 2.663-0.617 0.403-1.199 0.869-1.733 1.402-4.176 4.18-4.176 10.978 0 15.154 2.024 2.024 4.715 3.14 7.578 3.14s5.554-1.115 7.578-3.14c0.296-0.296 0.565-0.607 0.819-0.928 1.398 0.335 2.855 0.516 4.355 0.516 10.37 0 18.807-8.437 18.807-18.808v-15C71.134 40.723 68.416 38.006 65.076 38.006zM34.555 65.686c1.341-1.341 3.124-2.079 5.021-2.079 1.277 0 2.5 0.342 3.574 0.971l-9.702 9.7C31.867 71.56 32.231 68.012 34.555 65.686zM39.576 77.808c-1.277 0-2.499-0.343-3.573-0.972l9.703-9.7c1.581 2.718 1.217 6.266-1.109 8.591C43.255 77.068 41.472 77.808 39.576 77.808zM67.518 59.063c0 8.377-6.814 15.192-15.19 15.192-0.878 0-1.737-0.084-2.574-0.23 1.204-3.71 0.344-7.95-2.597-10.896 0 0 0-0.001-0.001-0.001h0c0-0.001 0-0.001 0-0.001-2.025-2.023-4.717-3.138-7.579-3.138-0.81 0-1.604 0.099-2.375 0.272-0.033-0.396-0.066-0.794-0.066-1.199V24.636c0-1.348 1.096-2.442 2.443-2.442 1.346 0 2.441 1.095 2.441 2.442v26.178c0 0.998 0.81 1.808 1.808 1.808s1.808-0.81 1.808-1.808v-10.75c0-1.347 1.095-2.442 2.442-2.442s2.443 1.096 2.443 2.442v10.75c0 0.998 0.809 1.808 1.808 1.808s1.808-0.81 1.808-1.808v-8.75c0-1.347 1.096-2.442 2.441-2.442s2.441 1.096 2.441 2.442v8.75c0 0.998 0.81 1.808 1.809 1.808 0.998 0 1.808-0.81 1.808-1.808v-6.75c0-1.347 1.095-2.442 2.442-2.442 1.346 0 2.441 1.096 2.441 2.442V59.063z" fill="#0a1627" data-fill-palette-color="quaternary"></path></svg></g></svg></g><g></g></svg></g></svg></g></svg></g></svg></g><defs></defs></svg><rect width="333.90454557049503" height="333.90454557049503" fill="none" stroke="none" visibility="hidden"></rect></g></svg></g></svg>